<svg width="126" height="44" viewBox="0 0 126 44" fill="none" xmlns="http://www.w3.org/2000/svg">
<path d="M49.1288 10.4698C48.8404 10.5609 48.4609 10.8847 48.3091 11.1681L48.1978 11.3755V32.8795L48.3192 33.0971C48.4761 33.3855 48.8201 33.6638 49.149 33.7751C49.5589 33.9066 50.586 33.9016 50.9958 33.7599C51.3854 33.6283 51.6738 33.3652 51.8408 32.9807L51.9673 32.6973V30.132C51.9673 28.6141 51.9875 27.5364 52.0179 27.4908C52.0736 27.4048 52.0432 27.3745 52.4986 27.9715C52.6908 28.2195 52.8629 28.437 52.8781 28.4522C52.8983 28.4674 53.1766 28.8165 53.5004 29.2365C54.5225 30.5621 55.1094 31.3059 55.1954 31.4122C55.246 31.4678 55.5142 31.8068 55.7925 32.1711C56.9056 33.603 57.3812 33.8661 58.8536 33.8661C59.7694 33.8661 60.0275 33.7953 60.3918 33.4361C61.1305 32.7176 60.9028 31.5943 59.9263 31.1288C59.6177 30.9821 59.39 30.7392 58.7727 29.9145C58.5703 29.6463 57.8164 28.6799 57.786 28.6546C57.7708 28.6394 57.5179 28.3206 57.2295 27.9462C56.936 27.5718 56.6881 27.253 56.6729 27.2379C56.6577 27.2227 56.4047 26.9039 56.1163 26.5295C55.8279 26.1551 55.58 25.8363 55.5648 25.8211C55.5446 25.8059 55.4484 25.6896 55.3472 25.558C55.1499 25.3202 55.0993 25.1026 55.2207 25.0267C55.2561 25.0065 55.5648 24.6776 55.9089 24.3032C56.258 23.9288 56.6982 23.4481 56.8955 23.2407C57.0928 23.0281 57.4926 22.5981 57.786 22.2793C59.4557 20.4628 59.5468 20.3667 59.8302 20.2352C60.3716 19.9872 60.6701 19.5369 60.6701 18.9652C60.6701 18.4592 60.4272 18.0089 59.9971 17.7407C59.7087 17.5585 59.0206 17.4877 58.2667 17.5585C57.953 17.594 57.6494 17.6395 57.5988 17.6699C57.5482 17.6952 57.3964 17.7711 57.2547 17.8368C56.9866 17.9583 56.2479 18.6565 55.5547 19.4408C55.3472 19.6735 55.155 19.8911 55.1246 19.9214C55.0993 19.9518 54.8362 20.2402 54.5478 20.559C54.2644 20.8777 53.8394 21.3432 53.6117 21.5962C53.1918 22.0567 52.3265 23.0231 52.1798 23.1951C51.9673 23.443 51.9673 23.4835 51.9673 17.3764C51.9673 10.991 51.9825 11.3502 51.6536 10.9303C51.4714 10.7026 51.2185 10.5356 50.925 10.4496C50.6315 10.3636 49.4273 10.3787 49.1288 10.4698Z" fill="white"/>
<path d="M91.5296 10.4698C91.2411 10.5609 90.8617 10.8797 90.7099 11.1681L90.5986 11.3755L90.5834 14.7301C90.5733 17.513 90.5581 18.0898 90.5024 18.1101C90.4619 18.1252 90.2747 18.0595 90.0875 17.9583C89.4905 17.6597 89.0806 17.508 88.4229 17.3612C87.9371 17.255 85.9942 17.2701 85.5388 17.3865C84.8355 17.5636 84.6179 17.6395 84.0715 17.9026C83.1202 18.358 82.2904 19.0765 81.7086 19.9518C81.0407 20.9638 80.7118 21.8239 80.4032 23.3925C80.2008 24.4246 80.2008 26.9748 80.4082 27.9968C80.5853 28.9076 80.732 29.4591 80.9142 29.9044C80.9496 29.9803 81.0053 30.127 81.0457 30.2231C81.6428 31.6803 82.8369 32.9453 84.198 33.5676C84.9569 33.9167 86.1814 34.1697 87.082 34.1697C88.2863 34.1697 89.6827 33.7548 90.6087 33.1274L90.7959 33.0009L91.0691 33.2843C91.5953 33.8307 92.0355 34.0129 92.8249 34.0179C93.6395 34.0179 94.3074 33.7548 94.7273 33.264C95.0663 32.8744 95.127 32.6467 95.127 31.8169C95.127 31.3312 95.1068 31.0833 95.0663 31.0428C95.0309 31.0074 94.8892 30.9821 94.7476 30.9821C94.6059 30.9821 94.4642 30.9568 94.4288 30.9214C94.3833 30.8758 94.3681 28.6394 94.3681 21.1662V11.4767L94.2467 11.2237C94.0898 10.8847 93.7255 10.566 93.3814 10.4648C93.0323 10.3636 91.8635 10.3686 91.5296 10.4698ZM87.674 20.8676C88.2255 20.9435 88.8327 21.1763 89.283 21.4849C89.5967 21.7025 90.2444 22.4109 90.4114 22.7195L90.5733 23.0281V28.3965L90.3911 28.7052C90.0015 29.368 89.2982 29.9752 88.5494 30.294C88.0788 30.4913 87.76 30.5469 87.1326 30.552C86.1966 30.552 85.7058 30.3648 85.1441 29.788C84.9013 29.535 84.4864 28.7862 84.3902 28.4168C84.1221 27.3846 84.0867 27.1013 84.0867 25.6946C84.0867 24.288 84.1221 23.9946 84.3902 22.9776C84.4864 22.6183 84.8507 21.9454 85.1138 21.657C85.5287 21.1965 85.8727 20.9941 86.4496 20.8879C86.8999 20.8019 87.1832 20.7968 87.674 20.8676Z" fill="white"/>
<path d="M68.5633 17.3207C67.9005 17.4321 67.3894 17.5636 67.0606 17.7053C66.9745 17.7458 66.8885 17.7761 66.8683 17.7761C66.8481 17.7761 66.6001 17.8925 66.3168 18.0342C64.556 18.9146 63.2556 20.6501 62.7244 22.8359C62.4967 23.7517 62.441 24.3437 62.441 25.7199C62.441 27.1013 62.4612 27.3441 62.6991 28.4269C63.0381 29.9752 63.8679 31.4628 64.9051 32.3938C65.9828 33.3551 67.1668 33.8712 68.8163 34.0938C69.5803 34.195 70.1571 34.19 71.0173 34.0736C72.6364 33.851 73.9115 33.264 74.9588 32.2521C75.7735 31.4678 76.4869 30.2687 76.8411 29.0847C77.347 27.42 77.4584 25.4113 77.1447 23.5948C76.9726 22.5829 76.7551 21.9049 76.325 21.0346C75.8494 20.0581 75.2017 19.2789 74.3314 18.6211C73.4156 17.9279 72.4441 17.5333 71.1185 17.3207C70.8048 17.2701 68.877 17.2701 68.5633 17.3207ZM70.4202 20.8676C71.25 20.9739 71.6902 21.1965 72.2822 21.7936C73.0716 22.593 73.4763 23.9035 73.4814 25.6693C73.4865 26.4283 73.3853 27.3391 73.2588 27.7438C72.9653 28.69 72.7123 29.1656 72.2873 29.6058C71.9281 29.9803 71.5486 30.2181 71.0426 30.3952C70.653 30.5267 70.5467 30.5419 69.9294 30.5469C69.4134 30.552 69.1604 30.5267 68.8922 30.4559C67.1415 29.9954 66.2358 28.3713 66.2358 25.6946C66.2358 24.3842 66.4585 23.3166 66.8936 22.507C67.0859 22.1528 67.096 22.1376 67.5109 21.7177C68.2091 21.0093 69.2413 20.7057 70.4202 20.8676Z" fill="white"/>
<path d="M119.338 17.3056C118.24 17.5434 117.678 17.7812 116.985 18.3125C116.267 18.8589 115.654 19.7191 115.381 20.5539C115.25 20.9739 115.113 21.7885 115.113 22.2034C115.113 22.5981 115.245 23.3874 115.366 23.7466C115.558 24.2981 116.019 25.0369 116.429 25.4518C116.955 25.983 117.653 26.4334 118.579 26.8381C118.731 26.9039 119.247 27.0608 119.591 27.1518C120.745 27.4504 121.266 27.6528 121.579 27.9209C121.671 27.9968 121.812 28.179 121.893 28.3207C122.03 28.5585 122.045 28.6192 122.045 29.0695C122.045 29.788 121.848 30.1877 121.362 30.4407C121.109 30.5672 120.638 30.6734 120.294 30.6785C119.803 30.6785 118.872 30.5065 118.427 30.3243C118.144 30.213 117.481 29.874 117.188 29.6969C116.545 29.3124 116.135 29.2365 115.634 29.4136C115.295 29.5299 115.047 29.7526 114.896 30.0713C114.794 30.2737 114.784 30.385 114.784 31.063C114.784 31.8018 114.789 31.8321 114.931 32.1155C115.427 33.0971 117.147 33.8813 119.211 34.0685C120.79 34.2102 122.025 34.0331 123.067 33.512C123.816 33.1426 124.575 32.495 124.985 31.8827C125.207 31.5488 125.536 30.8809 125.536 30.7696C125.536 30.7342 125.556 30.6785 125.582 30.6481C125.602 30.6228 125.668 30.4205 125.718 30.1978C125.84 29.6918 125.855 28.1992 125.744 27.7185C125.536 26.7875 125.157 26.0842 124.529 25.467C123.689 24.6321 122.576 24.0856 120.881 23.6707C120.046 23.4633 119.601 23.271 119.277 22.9725C118.913 22.6385 118.847 22.4564 118.867 21.8745C118.883 21.409 118.893 21.3685 119.039 21.1813C119.262 20.9031 119.525 20.7766 120.031 20.7057C120.39 20.6501 120.573 20.6501 120.987 20.7057C121.625 20.7816 122.04 20.9638 122.708 21.4647C123.366 21.9504 123.543 22.0263 124.033 22.0263C124.494 22.0263 124.762 21.9251 125.01 21.662C125.319 21.3382 125.359 21.1763 125.359 20.306C125.354 19.5926 125.344 19.5015 125.238 19.2738C124.823 18.3985 123.34 17.599 121.615 17.3207C121.316 17.2752 119.54 17.26 119.338 17.3056Z" fill="white"/>
<path d="M99.7415 17.5737C99.2356 17.6648 98.7549 18.1101 98.6233 18.611C98.5474 18.8842 98.5474 28.9177 98.6183 29.6058C98.6841 30.213 98.9016 31.1035 99.0686 31.4273C99.0939 31.4729 99.1698 31.6247 99.2305 31.7562C99.4278 32.161 99.954 32.7783 100.349 33.0768C101.234 33.7397 102.155 34.0179 103.471 34.0179C104.311 34.0179 104.867 33.9319 105.651 33.684C106.42 33.4411 106.532 33.4007 107.154 33.0869C107.463 32.9301 107.736 32.8036 107.766 32.8036C107.797 32.8036 107.903 32.9301 108.009 33.0819C108.429 33.7194 109.016 34.0129 109.866 34.0179C111 34.0179 111.784 33.5676 112.128 32.7024C112.229 32.4494 112.239 32.3634 112.214 31.7461C112.189 31.2756 112.163 31.0529 112.118 31.0226C112.082 31.0023 111.951 30.9821 111.824 30.9821C111.698 30.9821 111.566 30.9618 111.536 30.9416C111.485 30.9112 111.47 29.5552 111.46 24.7586L111.445 18.611L111.308 18.358C111.172 18.0999 110.949 17.8621 110.691 17.7053C110.291 17.4574 108.758 17.4827 108.343 17.7458C108.07 17.9178 107.898 18.105 107.761 18.3833L107.65 18.611L107.625 28.8519L107.432 28.9987C106.926 29.3984 106.132 29.8032 105.322 30.0764C104.837 30.2434 104.786 30.2484 104.058 30.2484C103.319 30.2484 103.293 30.2434 103.041 30.1067C102.737 29.9398 102.605 29.7779 102.494 29.4439C102.423 29.2314 102.413 28.6394 102.413 24.0097C102.408 18.1809 102.433 18.5199 102.039 18.0493C101.725 17.6749 101.437 17.5687 100.657 17.5484C100.298 17.5383 99.8883 17.5484 99.7415 17.5737Z" fill="white"/>
<path d="M16.2499 24.1734L22.2451 16.9782L24.4175 14.3374C24.4309 14.3419 26.6747 11.661 29.3957 8.38232C32.1213 5.10365 34.5078 2.25768 34.7085 2.05695C35.7434 1.00421 37.3181 0.446613 38.7857 0.607201C40.7439 0.816856 42.2918 2.06587 42.8583 3.89032C43.1126 4.71111 43.1349 5.67909 42.9163 6.52217C42.6978 7.36526 42.1848 8.23511 41.2525 9.33692C40.8867 9.77408 30.7251 22.001 30.6091 22.1438C30.5288 22.2464 30.5288 22.2464 30.9481 22.7237C31.1756 22.9913 32.7904 24.8916 34.5301 26.9525C42.7736 36.7127 42.1223 35.9231 42.4613 36.5655C43.3267 38.207 43.2509 40.0984 42.2651 41.566C42.0019 41.9541 41.3774 42.5875 40.9982 42.8507C40.1284 43.4484 39.2853 43.7161 38.2504 43.7161C36.988 43.7161 35.9798 43.3146 34.9449 42.4001C34.5613 42.0656 33.6424 41.0396 33.406 40.6917C32.9331 39.9824 33.0982 38.9787 33.7718 38.4657C34.3427 38.0286 35.1591 38.0018 35.739 38.3988C35.8416 38.4702 36.1583 38.8003 36.4438 39.1259C36.7248 39.456 37.0549 39.8084 37.1709 39.911C37.8534 40.5132 38.6608 40.5266 39.2674 39.9423C39.8116 39.4203 39.8696 38.662 39.4146 37.9751C39.2585 37.7386 36.5776 34.5492 30.8812 27.8223C29.418 26.0916 27.9148 24.3251 27.549 23.8969C26.7773 23.0047 26.6836 22.8352 26.6791 22.291C26.6747 21.9074 26.7684 21.5862 26.9646 21.3141C27.0851 21.149 37.7285 8.32879 38.6831 7.20021C39.5306 6.19654 39.7492 5.78169 39.7135 5.22409C39.6778 4.71556 39.428 4.30964 38.9953 4.07767C38.8303 3.99292 38.7411 3.97954 38.295 3.97954C37.8043 3.97954 37.7642 3.98846 37.492 4.12228C37.3315 4.20258 37.1307 4.34086 37.0415 4.43454C36.9523 4.52821 35.8416 5.85752 34.5658 7.39202C26.9066 16.6169 10.4063 36.4093 10.1743 36.6457C9.8442 36.9848 9.58101 37.1587 9.25984 37.2524C8.57288 37.4531 7.7521 37.19 7.33279 36.6279C7.11867 36.3469 6.99377 36.0079 6.93132 35.5484C6.90455 35.3209 6.89117 30.6728 6.90009 21.8672C6.91347 9.06036 6.91793 8.5206 6.99377 8.28418C7.24803 7.53031 7.85023 7.07977 8.60857 7.07977C9.0145 7.07977 9.31337 7.18237 9.75944 7.48124C10.4063 7.91394 10.7096 8.24403 13.2745 11.2729C16.1294 14.6452 17.6193 16.4697 17.7308 16.715C17.8201 16.9158 17.8424 17.0317 17.8424 17.3618C17.8424 17.7187 17.829 17.7945 17.7041 18.0533C17.5301 18.4235 17.2535 18.7001 16.8833 18.874C16.6246 18.9989 16.5487 19.0123 16.1919 19.0123C15.8484 19.0123 15.7547 18.9945 15.5317 18.8919C15.3889 18.825 15.2105 18.7179 15.1391 18.6599C15.0678 18.5975 14.2336 17.6206 13.2835 16.4831C12.3288 15.3456 11.2627 14.0698 10.9059 13.646L10.259 12.8788L10.2457 17.4957C10.2412 20.0338 10.2412 24.1957 10.2457 26.7384L10.259 31.3642L16.2499 24.1734Z" fill="url(#paint0_linear_148_56)"/>
<path d="M0.864337 6.61583C1.7208 3.24795 4.32589 0.968498 7.78299 0.571491C10.0268 0.312767 12.3017 1.02203 13.9968 2.503C14.4295 2.88663 20.233 9.46626 23.4403 13.2133C23.9622 13.8244 24.4038 14.333 24.4172 14.3374L22.2448 16.9782L22.0708 16.7685C21.3616 15.8942 17.7573 11.7502 12.7567 6.05824C11.8512 5.02334 11.4631 4.68878 10.794 4.35868C8.89372 3.413 6.36892 3.90368 5.08422 5.46495C4.38834 6.30358 4.0404 7.24926 3.94227 8.5518C3.86197 9.57778 3.86197 35.535 3.93781 36.0078C4.04486 36.6502 4.21437 37.2033 4.45526 37.7074C5.20913 39.2464 6.44922 40.1474 8.10862 40.3571C9.57622 40.54 10.852 40.0984 12.0832 38.9698C12.4088 38.6709 13.8586 36.9847 16.37 33.9782C17.4227 32.7158 18.3952 31.5694 18.5334 31.4311C19.3854 30.5835 20.8263 30.9092 21.2545 32.0467C21.3883 32.408 21.3705 32.9611 21.2054 33.3091C21.1296 33.4741 20.5229 34.2369 19.3364 35.651C17.2443 38.149 15.5313 40.1653 14.9827 40.7809C13.0779 42.9042 10.4996 43.9703 7.91681 43.7027C6.65441 43.5688 5.36525 43.1451 4.39727 42.5339C3.22854 41.8024 2.13566 40.5846 1.50223 39.3088C0.908945 38.1178 0.627916 36.9892 0.552083 35.4948C0.507475 34.5402 0.507475 19.106 0.556544 12.7226C0.596691 7.66411 0.59223 7.69088 0.864337 6.61583Z" fill="url(#paint1_linear_148_56)"/>
<defs>
<linearGradient id="paint0_linear_148_56" x1="43.0522" y1="22.1529" x2="6.88862" y2="22.3474" gradientUnits="userSpaceOnUse">
<stop offset="0.149262" stop-color="#F59220"/>
<stop offset="0.476924" stop-color="#EF4C4B"/>
<stop offset="0.690489" stop-color="#6A57A4"/>
<stop offset="1" stop-color="#EF4C4B"/>
</linearGradient>
<linearGradient id="paint1_linear_148_56" x1="24.4193" y1="22.1149" x2="0.512231" y2="22.1984" gradientUnits="userSpaceOnUse">
<stop offset="0.119096" stop-color="#F59220"/>
<stop offset="0.47756" stop-color="#EF4C4B"/>
<stop offset="0.650154" stop-color="#6A57A4"/>
<stop offset="1" stop-color="#EF4C4B"/>
</linearGradient>
</defs>
</svg>
