<svg width="126" height="44" viewBox="0 0 126 44" fill="none" xmlns="http://www.w3.org/2000/svg">
<path d="M49.1288 10.0492C48.8404 10.1403 48.4609 10.4641 48.3091 10.7475L48.1978 10.9549V32.4589L48.3192 32.6765C48.4761 32.9649 48.8201 33.2432 49.149 33.3545C49.5589 33.486 50.586 33.481 50.9958 33.3393C51.3854 33.2077 51.6738 32.9446 51.8408 32.5601L51.9673 32.2767V29.7114C51.9673 28.1935 51.9875 27.1158 52.0179 27.0703C52.0736 26.9842 52.0432 26.9539 52.4986 27.5509C52.6908 27.7989 52.8629 28.0164 52.8781 28.0316C52.8983 28.0468 53.1766 28.3959 53.5004 28.8159C54.5225 30.1415 55.1094 30.8853 55.1954 30.9916C55.246 31.0472 55.5142 31.3862 55.7925 31.7505C56.9056 33.1824 57.3812 33.4455 58.8536 33.4455C59.7694 33.4455 60.0275 33.3747 60.3918 33.0155C61.1305 32.297 60.9028 31.1737 59.9263 30.7082C59.6177 30.5615 59.39 30.3186 58.7727 29.4939C58.5703 29.2257 57.8164 28.2593 57.786 28.234C57.7708 28.2188 57.5179 27.9001 57.2295 27.5256C56.936 27.1512 56.6881 26.8324 56.6729 26.8173C56.6577 26.8021 56.4047 26.4833 56.1163 26.1089C55.8279 25.7345 55.58 25.4157 55.5648 25.4005C55.5446 25.3854 55.4484 25.269 55.3472 25.1374C55.1499 24.8996 55.0993 24.682 55.2207 24.6062C55.2561 24.5859 55.5648 24.257 55.9089 23.8826C56.258 23.5082 56.6982 23.0275 56.8955 22.8201C57.0928 22.6075 57.4926 22.1775 57.786 21.8587C59.4557 20.0423 59.5468 19.9461 59.8302 19.8146C60.3716 19.5666 60.6701 19.1163 60.6701 18.5446C60.6701 18.0386 60.4272 17.5883 59.9971 17.3201C59.7087 17.138 59.0206 17.0671 58.2667 17.138C57.953 17.1734 57.6494 17.2189 57.5988 17.2493C57.5482 17.2746 57.3964 17.3505 57.2547 17.4162C56.9866 17.5377 56.2479 18.2359 55.5547 19.0202C55.3472 19.2529 55.155 19.4705 55.1246 19.5009C55.0993 19.5312 54.8362 19.8196 54.5478 20.1384C54.2644 20.4572 53.8394 20.9226 53.6117 21.1756C53.1918 21.6361 52.3265 22.6025 52.1798 22.7745C51.9673 23.0224 51.9673 23.0629 51.9673 16.9558C51.9673 10.5704 51.9825 10.9296 51.6536 10.5097C51.4714 10.282 51.2185 10.115 50.925 10.029C50.6315 9.94298 49.4273 9.95815 49.1288 10.0492Z" fill="#111234"/>
<path d="M91.5296 10.0492C91.2411 10.1403 90.8617 10.4591 90.7099 10.7475L90.5986 10.9549L90.5834 14.3096C90.5733 17.0924 90.5581 17.6692 90.5024 17.6895C90.4619 17.7047 90.2747 17.6389 90.0875 17.5377C89.4905 17.2392 89.0806 17.0874 88.4229 16.9406C87.9371 16.8344 85.9942 16.8496 85.5388 16.9659C84.8355 17.143 84.6179 17.2189 84.0715 17.482C83.1202 17.9374 82.2904 18.6559 81.7086 19.5312C81.0407 20.5432 80.7118 21.4033 80.4032 22.9719C80.2008 24.004 80.2008 26.5542 80.4082 27.5762C80.5853 28.487 80.732 29.0385 80.9142 29.4838C80.9496 29.5597 81.0053 29.7064 81.0457 29.8025C81.6428 31.2597 82.8369 32.5247 84.198 33.147C84.9569 33.4962 86.1814 33.7491 87.082 33.7491C88.2863 33.7491 89.6828 33.3342 90.6087 32.7068L90.7959 32.5803L91.0691 32.8637C91.5953 33.4101 92.0355 33.5923 92.8249 33.5973C93.6395 33.5973 94.3074 33.3342 94.7273 32.8434C95.0663 32.4538 95.127 32.2262 95.127 31.3964C95.127 30.9106 95.1068 30.6627 95.0663 30.6222C95.0309 30.5868 94.8892 30.5615 94.7476 30.5615C94.6059 30.5615 94.4642 30.5362 94.4288 30.5008C94.3833 30.4552 94.3681 28.2188 94.3681 20.7456V11.0561L94.2467 10.8031C94.0898 10.4641 93.7255 10.1454 93.3814 10.0442C93.0323 9.94298 91.8635 9.94804 91.5296 10.0492ZM87.674 20.447C88.2255 20.5229 88.8327 20.7557 89.283 21.0643C89.5967 21.2819 90.2444 21.9903 90.4114 22.2989L90.5733 22.6076V27.976L90.3911 28.2846C90.0015 28.9474 89.2982 29.5546 88.5494 29.8734C88.0788 30.0707 87.76 30.1264 87.1326 30.1314C86.1966 30.1314 85.7058 29.9442 85.1441 29.3674C84.9013 29.1144 84.4864 28.3656 84.3902 27.9962C84.1221 26.964 84.0867 26.6807 84.0867 25.274C84.0867 23.8674 84.1221 23.574 84.3902 22.557C84.4864 22.1977 84.8507 21.5248 85.1138 21.2364C85.5287 20.7759 85.8727 20.5735 86.4496 20.4673C86.8999 20.3813 87.1832 20.3762 87.674 20.447Z" fill="#111234"/>
<path d="M68.5633 16.9001C67.9005 17.0115 67.3894 17.143 67.0606 17.2847C66.9745 17.3252 66.8885 17.3555 66.8683 17.3555C66.8481 17.3555 66.6001 17.4719 66.3168 17.6136C64.556 18.494 63.2556 20.2295 62.7244 22.4153C62.4967 23.3311 62.441 23.9231 62.441 25.2993C62.441 26.6807 62.4612 26.9235 62.6991 28.0063C63.0381 29.5546 63.8679 31.0422 64.9051 31.9732C65.9828 32.9345 67.1668 33.4506 68.8163 33.6732C69.5803 33.7744 70.1571 33.7694 71.0173 33.653C72.6364 33.4304 73.9115 32.8434 74.9588 31.8315C75.7735 31.0472 76.4869 29.8481 76.8411 28.6641C77.347 26.9994 77.4584 24.9907 77.1447 23.1742C76.9726 22.1623 76.7551 21.4843 76.325 20.614C75.8494 19.6375 75.2017 18.8583 74.3314 18.2005C73.4156 17.5073 72.4441 17.1127 71.1185 16.9001C70.8048 16.8496 68.877 16.8496 68.5633 16.9001ZM70.4202 20.447C71.25 20.5533 71.6902 20.7759 72.2822 21.373C73.0716 22.1724 73.4763 23.4829 73.4814 25.2487C73.4865 26.0077 73.3853 26.9185 73.2588 27.3232C72.9653 28.2694 72.7123 28.745 72.2873 29.1852C71.928 29.5597 71.5486 29.7975 71.0426 29.9746C70.653 30.1061 70.5467 30.1213 69.9294 30.1264C69.4134 30.1314 69.1604 30.1061 68.8922 30.0353C67.1415 29.5748 66.2358 27.9507 66.2358 25.274C66.2358 23.9636 66.4585 22.896 66.8936 22.0864C67.0859 21.7322 67.096 21.717 67.5109 21.2971C68.2091 20.5887 69.2413 20.2851 70.4202 20.447Z" fill="#111234"/>
<path d="M119.338 16.885C118.24 17.1228 117.678 17.3606 116.985 17.8919C116.267 18.4383 115.654 19.2985 115.381 20.1333C115.25 20.5533 115.113 21.3679 115.113 21.7828C115.113 22.1775 115.245 22.9668 115.366 23.326C115.558 23.8776 116.019 24.6163 116.429 25.0312C116.955 25.5625 117.653 26.0128 118.579 26.4176C118.731 26.4833 119.247 26.6402 119.591 26.7313C120.745 27.0298 121.266 27.2322 121.579 27.5003C121.671 27.5762 121.812 27.7584 121.893 27.9001C122.03 28.1379 122.045 28.1986 122.045 28.6489C122.045 29.3674 121.848 29.7671 121.362 30.0201C121.109 30.1466 120.638 30.2528 120.294 30.2579C119.803 30.2579 118.872 30.0859 118.427 29.9037C118.144 29.7924 117.481 29.4534 117.188 29.2763C116.545 28.8918 116.135 28.8159 115.634 28.993C115.295 29.1093 115.047 29.332 114.896 29.6507C114.794 29.8531 114.784 29.9644 114.784 30.6425C114.784 31.3812 114.789 31.4115 114.931 31.6949C115.427 32.6765 117.147 33.4607 119.211 33.6479C120.79 33.7896 122.025 33.6125 123.067 33.0914C123.816 32.722 124.575 32.0744 124.985 31.4621C125.207 31.1282 125.536 30.4603 125.536 30.349C125.536 30.3136 125.556 30.2579 125.582 30.2275C125.602 30.2022 125.668 29.9999 125.718 29.7772C125.84 29.2713 125.855 27.7786 125.744 27.298C125.536 26.367 125.157 25.6636 124.529 25.0464C123.689 24.2115 122.576 23.665 120.881 23.2501C120.046 23.0427 119.601 22.8504 119.277 22.5519C118.913 22.218 118.847 22.0358 118.867 21.4539C118.883 20.9884 118.893 20.948 119.039 20.7607C119.262 20.4825 119.525 20.356 120.031 20.2851C120.39 20.2295 120.573 20.2295 120.987 20.2851C121.625 20.361 122.04 20.5432 122.708 21.0441C123.366 21.5298 123.543 21.6057 124.033 21.6057C124.494 21.6057 124.762 21.5045 125.01 21.2414C125.319 20.9176 125.359 20.7557 125.359 19.8854C125.354 19.172 125.344 19.0809 125.238 18.8532C124.823 17.9779 123.34 17.1784 121.615 16.9001C121.316 16.8546 119.54 16.8394 119.338 16.885Z" fill="#111234"/>
<path d="M99.7415 17.1531C99.2356 17.2442 98.7549 17.6895 98.6233 18.1904C98.5474 18.4636 98.5474 28.4971 98.6183 29.1852C98.6841 29.7924 98.9016 30.6829 99.0686 31.0068C99.0939 31.0523 99.1698 31.2041 99.2305 31.3356C99.4278 31.7404 99.954 32.3577 100.349 32.6562C101.234 33.3191 102.155 33.5973 103.471 33.5973C104.311 33.5973 104.867 33.5113 105.651 33.2634C106.42 33.0205 106.532 32.9801 107.154 32.6664C107.463 32.5095 107.736 32.383 107.766 32.383C107.797 32.383 107.903 32.5095 108.009 32.6613C108.429 33.2988 109.016 33.5923 109.866 33.5973C111 33.5973 111.784 33.147 112.128 32.2818C112.229 32.0288 112.239 31.9428 112.214 31.3255C112.189 30.855 112.163 30.6323 112.118 30.602C112.082 30.5817 111.951 30.5615 111.824 30.5615C111.698 30.5615 111.566 30.5413 111.536 30.521C111.485 30.4907 111.47 29.1346 111.46 24.338L111.445 18.1904L111.308 17.9374C111.172 17.6794 110.949 17.4415 110.691 17.2847C110.291 17.0368 108.758 17.0621 108.343 17.3252C108.07 17.4972 107.898 17.6844 107.761 17.9627L107.65 18.1904L107.625 28.4313L107.432 28.5781C106.926 28.9778 106.132 29.3826 105.322 29.6558C104.837 29.8228 104.786 29.8278 104.058 29.8278C103.319 29.8278 103.293 29.8228 103.041 29.6862C102.737 29.5192 102.605 29.3573 102.494 29.0233C102.423 28.8108 102.413 28.2188 102.413 23.5891C102.408 17.7603 102.433 18.0993 102.039 17.6288C101.725 17.2543 101.437 17.1481 100.657 17.1278C100.298 17.1177 99.8883 17.1278 99.7415 17.1531Z" fill="#111234"/>
<path d="M16.2499 23.7528L22.2451 16.5576L24.4175 13.9168C24.4309 13.9213 26.6747 11.2404 29.3957 7.96172C32.1213 4.68306 34.5078 1.83709 34.7085 1.63636C35.7434 0.583614 37.3181 0.0260201 38.7857 0.186607C40.7439 0.396263 42.2918 1.64528 42.8583 3.46973C43.1126 4.29051 43.1349 5.2585 42.9163 6.10158C42.6978 6.94467 42.1848 7.81452 41.2525 8.91633C40.8867 9.35349 30.7251 21.5805 30.6091 21.7232C30.5288 21.8258 30.5288 21.8258 30.9481 22.3031C31.1756 22.5707 32.7904 24.471 34.5301 26.5319C42.7736 36.2921 42.1223 35.5025 42.4613 36.1449C43.3267 37.7864 43.2509 39.6778 42.2651 41.1454C42.0019 41.5335 41.3774 42.1669 40.9982 42.4301C40.1284 43.0278 39.2853 43.2955 38.2504 43.2955C36.988 43.2955 35.9798 42.894 34.9449 41.9795C34.5613 41.645 33.6424 40.619 33.406 40.2711C32.9331 39.5618 33.0982 38.5581 33.7718 38.0451C34.3427 37.608 35.1591 37.5812 35.739 37.9782C35.8416 38.0496 36.1583 38.3797 36.4438 38.7053C36.7248 39.0354 37.0549 39.3878 37.1709 39.4904C37.8534 40.0926 38.6608 40.106 39.2674 39.5217C39.8116 38.9998 39.8696 38.2414 39.4146 37.5545C39.2585 37.318 36.5776 34.1286 30.8812 27.4018C29.418 25.671 27.9148 23.9045 27.549 23.4763C26.7773 22.5841 26.6836 22.4146 26.6791 21.8704C26.6747 21.4868 26.7684 21.1656 26.9646 20.8935C27.0851 20.7284 37.7285 7.9082 38.6831 6.77962C39.5306 5.77595 39.7492 5.3611 39.7135 4.8035C39.6778 4.29497 39.428 3.88904 38.9953 3.65708C38.8303 3.57233 38.7411 3.55894 38.295 3.55894C37.8043 3.55894 37.7642 3.56787 37.492 3.70169C37.3315 3.78199 37.1307 3.92027 37.0415 4.01394C36.9523 4.10762 35.8416 5.43693 34.5658 6.97143C26.9066 16.1963 10.4063 35.9887 10.1743 36.2252C9.8442 36.5642 9.58101 36.7381 9.25984 36.8318C8.57288 37.0326 7.7521 36.7694 7.33279 36.2073C7.11867 35.9263 6.99377 35.5873 6.93132 35.1278C6.90455 34.9003 6.89117 30.2522 6.90009 21.4466C6.91347 8.63976 6.91793 8.10001 6.99377 7.86359C7.24803 7.10972 7.85023 6.65918 8.60857 6.65918C9.0145 6.65918 9.31337 6.76178 9.75944 7.06065C10.4063 7.49334 10.7096 7.82344 13.2745 10.8523C16.1294 14.2246 17.6193 16.0491 17.7308 16.2944C17.8201 16.4952 17.8424 16.6112 17.8424 16.9413C17.8424 17.2981 17.829 17.3739 17.7041 17.6327C17.5301 18.0029 17.2535 18.2795 16.8833 18.4535C16.6246 18.5784 16.5487 18.5917 16.1919 18.5917C15.8484 18.5917 15.7547 18.5739 15.5317 18.4713C15.3889 18.4044 15.2105 18.2973 15.1391 18.2393C15.0678 18.1769 14.2336 17.2 13.2835 16.0625C12.3288 14.925 11.2627 13.6492 10.9059 13.2254L10.259 12.4582L10.2457 17.0751C10.2412 19.6133 10.2412 23.7751 10.2457 26.3178L10.259 30.9436L16.2499 23.7528Z" fill="url(#paint0_linear_148_50)"/>
<path d="M0.864337 6.19524C1.7208 2.82736 4.32589 0.547905 7.78299 0.150898C10.0268 -0.107826 12.3017 0.601437 13.9968 2.08241C14.4295 2.46604 20.233 9.04567 23.4403 12.7927C23.9622 13.4038 24.4038 13.9124 24.4172 13.9168L22.2448 16.5576L22.0708 16.3479C21.3616 15.4736 17.7573 11.3296 12.7567 5.63764C11.8512 4.60275 11.4631 4.26819 10.794 3.93809C8.89372 2.99241 6.36892 3.48309 5.08422 5.04436C4.38834 5.88298 4.0404 6.82867 3.94227 8.13121C3.86197 9.15719 3.86197 35.1144 3.93781 35.5872C4.04486 36.2296 4.21437 36.7827 4.45526 37.2868C5.20913 38.8258 6.44922 39.7268 8.10862 39.9365C9.57622 40.1194 10.852 39.6778 12.0832 38.5492C12.4088 38.2503 13.8586 36.5641 16.37 33.5576C17.4227 32.2952 18.3952 31.1488 18.5334 31.0105C19.3854 30.1629 20.8263 30.4886 21.2545 31.6261C21.3883 31.9874 21.3705 32.5405 21.2054 32.8885C21.1296 33.0535 20.5229 33.8163 19.3364 35.2304C17.2443 37.7284 15.5313 39.7447 14.9827 40.3603C13.0779 42.4836 10.4996 43.5497 7.91681 43.2821C6.65441 43.1482 5.36525 42.7245 4.39727 42.1133C3.22854 41.3818 2.13566 40.164 1.50223 38.8882C0.908945 37.6972 0.627916 36.5686 0.552083 35.0743C0.507475 34.1196 0.507475 18.6854 0.556544 12.302C0.596691 7.24352 0.59223 7.27028 0.864337 6.19524Z" fill="url(#paint1_linear_148_50)"/>
<defs>
<linearGradient id="paint0_linear_148_50" x1="43.0522" y1="21.7323" x2="6.88862" y2="21.9268" gradientUnits="userSpaceOnUse">
<stop offset="0.149262" stop-color="#F59220"/>
<stop offset="0.476924" stop-color="#EF4C4B"/>
<stop offset="0.690489" stop-color="#6A57A4"/>
<stop offset="1" stop-color="#EF4C4B"/>
</linearGradient>
<linearGradient id="paint1_linear_148_50" x1="24.4193" y1="21.6943" x2="0.512231" y2="21.7778" gradientUnits="userSpaceOnUse">
<stop offset="0.119096" stop-color="#F59220"/>
<stop offset="0.47756" stop-color="#EF4C4B"/>
<stop offset="0.650154" stop-color="#6A57A4"/>
<stop offset="1" stop-color="#EF4C4B"/>
</linearGradient>
</defs>
</svg>
