<svg width="250" height="250" viewBox="0 0 250 250" fill="none" xmlns="http://www.w3.org/2000/svg">
<g clip-path="url(#clip0_503_2)">
<rect width="250" height="250" fill="#141217"/>
<g opacity="0.4">
<circle cx="267" cy="406" r="406" fill="url(#paint0_radial_503_2)" fill-opacity="0.8"/>
<circle cx="8.5" cy="503.5" r="431.5" fill="url(#paint1_radial_503_2)"/>
</g>
<path d="M108.203 128.189L126.373 106.382L132.957 98.3787C132.997 98.3922 139.797 90.2671 148.044 80.3304C156.305 70.3937 163.537 61.7684 164.146 61.16C167.282 57.9695 172.055 56.2795 176.502 56.7662C182.437 57.4016 187.129 61.187 188.846 66.7165C189.616 69.204 189.684 72.1377 189.021 74.6928C188.359 77.248 186.804 79.8843 183.979 83.2235C182.87 84.5484 152.073 121.605 151.721 122.038C151.478 122.348 151.478 122.348 152.749 123.795C153.438 124.606 158.332 130.365 163.605 136.611C188.589 166.192 186.615 163.799 187.642 165.746C190.265 170.721 190.035 176.453 187.047 180.901C186.25 182.077 184.357 183.997 183.208 184.794C180.572 186.606 178.017 187.417 174.88 187.417C171.054 187.417 167.999 186.2 164.862 183.429C163.7 182.415 160.915 179.305 160.198 178.251C158.765 176.101 159.265 173.059 161.307 171.505C163.037 170.18 165.511 170.099 167.269 171.302C167.58 171.518 168.54 172.519 169.405 173.506C170.256 174.506 171.257 175.574 171.608 175.885C173.677 177.71 176.124 177.751 177.963 175.98C179.612 174.398 179.788 172.1 178.409 170.018C177.935 169.301 169.81 159.635 152.546 139.248C148.112 134.002 143.556 128.648 142.447 127.351C140.108 124.647 139.824 124.133 139.811 122.484C139.797 121.321 140.081 120.348 140.676 119.523C141.041 119.023 173.298 80.1682 176.191 76.7478C178.76 73.7059 179.423 72.4486 179.314 70.7587C179.206 69.2175 178.449 67.9873 177.138 67.2843C176.638 67.0274 176.367 66.9868 175.015 66.9868C173.528 66.9868 173.406 67.0139 172.582 67.4195C172.095 67.6628 171.487 68.0819 171.216 68.3658C170.946 68.6497 167.58 72.6785 163.713 77.3291C140.5 105.287 90.4924 165.272 89.7894 165.989C88.789 167.016 87.9914 167.544 87.018 167.827C84.936 168.436 82.4484 167.638 81.1776 165.935C80.5287 165.083 80.1502 164.056 79.9609 162.663C79.8798 161.974 79.8392 147.886 79.8663 121.199C79.9068 82.3854 79.9203 80.7495 80.1502 80.033C80.9208 77.7482 82.7459 76.3828 85.0442 76.3828C86.2744 76.3828 87.1802 76.6937 88.5321 77.5995C90.4924 78.9109 91.4118 79.9113 99.1854 89.0909C107.838 99.3115 112.353 104.841 112.691 105.585C112.962 106.193 113.029 106.544 113.029 107.545C113.029 108.626 112.989 108.856 112.61 109.64C112.083 110.762 111.245 111.601 110.123 112.128C109.338 112.506 109.109 112.547 108.027 112.547C106.986 112.547 106.702 112.493 106.026 112.182C105.594 111.979 105.053 111.655 104.836 111.479C104.62 111.29 102.092 108.329 99.2124 104.882C96.3193 101.434 93.0882 97.5676 92.0066 96.2832L90.0463 93.9579L90.0057 107.95C89.9922 115.643 89.9922 128.256 90.0057 135.962L90.0463 149.982L108.203 128.189Z" fill="url(#paint2_linear_503_2)"/>
<path d="M61.5715 74.9773C64.1672 64.7702 72.0625 57.8618 82.54 56.6586C89.3402 55.8745 96.2351 58.0241 101.372 62.5125C102.684 63.6752 120.272 83.6162 129.993 94.9724C131.575 96.8246 132.913 98.3658 132.954 98.3793L126.37 106.383L125.842 105.747C123.693 103.098 112.769 90.5381 97.614 73.2874C94.8696 70.1509 93.6934 69.137 91.6655 68.1366C85.9063 65.2704 78.2544 66.7576 74.3608 71.4893C72.2518 74.031 71.1973 76.8971 70.8998 80.8447C70.6565 83.9542 70.6565 162.623 70.8863 164.056C71.2108 166.003 71.7245 167.679 72.4546 169.207C74.7393 173.871 78.4977 176.602 83.5269 177.238C87.9748 177.792 91.8413 176.453 95.5726 173.033C96.5595 172.127 100.953 167.017 108.565 157.905C111.755 154.079 114.702 150.604 115.122 150.185C117.704 147.617 122.07 148.604 123.368 152.051C123.774 153.146 123.72 154.823 123.22 155.877C122.99 156.377 121.151 158.689 117.555 162.975C111.214 170.545 106.023 176.656 104.36 178.522C98.5874 184.957 90.7733 188.188 82.9456 187.377C79.1196 186.971 75.2125 185.687 72.2788 183.835C68.7368 181.618 65.4245 177.927 63.5048 174.061C61.7067 170.451 60.855 167.03 60.6252 162.501C60.49 159.608 60.49 112.831 60.6387 93.4853C60.7603 78.1544 60.7468 78.2355 61.5715 74.9773Z" fill="url(#paint3_linear_503_2)"/>
</g>
<defs>
<radialGradient id="paint0_radial_503_2" cx="0" cy="0" r="1" gradientUnits="userSpaceOnUse" gradientTransform="translate(267 406) rotate(90) scale(406)">
<stop offset="0.223958" stop-color="#EF4C4B" stop-opacity="0.24"/>
<stop offset="1" stop-color="#EF4C4B" stop-opacity="0"/>
</radialGradient>
<radialGradient id="paint1_radial_503_2" cx="0" cy="0" r="1" gradientUnits="userSpaceOnUse" gradientTransform="translate(8.5 503.5) rotate(90) scale(431.5)">
<stop offset="0.223958" stop-color="#6A57A4" stop-opacity="0.24"/>
<stop offset="1" stop-color="#6A57A4" stop-opacity="0"/>
</radialGradient>
<linearGradient id="paint2_linear_503_2" x1="189.433" y1="122.065" x2="79.8315" y2="122.655" gradientUnits="userSpaceOnUse">
<stop offset="0.149262" stop-color="#F59220"/>
<stop offset="0.476924" stop-color="#EF4C4B"/>
<stop offset="0.690489" stop-color="#6A57A4"/>
<stop offset="1" stop-color="#EF4C4B"/>
</linearGradient>
<linearGradient id="paint3_linear_503_2" x1="132.96" y1="121.951" x2="60.5044" y2="122.204" gradientUnits="userSpaceOnUse">
<stop offset="0.119096" stop-color="#F59220"/>
<stop offset="0.47756" stop-color="#EF4C4B"/>
<stop offset="0.650154" stop-color="#6A57A4"/>
<stop offset="1" stop-color="#EF4C4B"/>
</linearGradient>
<clipPath id="clip0_503_2">
<rect width="250" height="250" fill="white"/>
</clipPath>
</defs>
</svg>
